<svg xmlns="http://www.w3.org/2000/svg">

    <symbol id="telegram" fill="none" viewBox="0 0 16 16">
        <path fill="#27A6E5"
            d="M8 0A7.98 7.98 0 0 0 .15 9.56a7.98 7.98 0 0 0 13.5 4.1A7.98 7.98 0 0 0 11.07.6 7.98 7.98 0 0 0 8 0Z" />
        <path fill="#FFF"
            d="M3.63 7.91c2.32-1.01 3.87-1.68 4.66-2 2.22-.92 2.69-1.08 2.99-1.1.06 0 .2.02.3.1.08.06.1.15.12.21 0 .07.03.2 0 .32a82.2 82.2 0 0 1-.9 5.75c-.11.6-.34.8-.55.82-.46.04-.81-.31-1.26-.6l-1.79-1.2c-.79-.52-.27-.81.17-1.27.13-.13 2.17-1.99 2.2-2.15 0-.03.02-.1-.03-.15-.04-.04-.11-.03-.16 0-.08 0-1.2.75-3.38 2.22-.26.2-.55.3-.88.31A5.9 5.9 0 0 1 3.9 8.9c-.5-.16-.9-.25-.86-.53.02-.15.2-.3.6-.45Z" />
    </symbol>

</svg>